<svg width="948" height="633" viewBox="0 0 948 633" fill="none" xmlns="http://www.w3.org/2000/svg">
<rect id="Rectangle 2" x="876.732" y="61.1768" width="83.0505" height="85.2329" rx="5" transform="rotate(29.024 876.732 61.1768)" fill="#999999"/>
<rect id="Rectangle 4" x="388.927" y="68.352" width="80.0505" height="82.2329" rx="13.5" transform="rotate(-39.7086 388.927 68.352)" stroke="#FF9696" stroke-width="3"/>
<rect id="Rectangle 6" x="-3.88772" y="181.255" width="80.0505" height="82.2329" rx="13.5" transform="rotate(-39.7086 -3.88772 181.255)" stroke="#F7FF96" stroke-width="3"/>
<rect id="Rectangle 5" x="437.112" y="530.255" width="80.0505" height="82.2329" rx="18.5" transform="rotate(-39.7086 437.112 530.255)" stroke="#1E80F4" stroke-width="3"/>
<rect id="Rectangle 3" x="785.253" y="530.997" width="102.406" height="88.4188" rx="5" transform="rotate(-36.1416 785.253 530.997)" fill="#7AD2EE"/>
<g id="Polygon 1" filter="url(#filter0_d_0_1)">
<path d="M152.303 40.3204L178.32 86.0078C178.889 87.0077 178.167 88.25 177.016 88.25H124.984C123.833 88.25 123.111 87.0077 123.68 86.0077L149.697 40.3203C150.272 39.31 151.728 39.31 152.303 40.3204Z" stroke="#7C82FF" stroke-width="3" shape-rendering="crispEdges"/>
</g>
<path id="Ellipse 1" d="M356 411C356 435.024 336.301 454.5 312 454.5C287.699 454.5 268 435.024 268 411C268 386.976 287.699 367.5 312 367.5C336.301 367.5 356 386.976 356 411Z" fill="#D9D9D9" stroke="#FF8BFA" stroke-width="4"/>
<ellipse id="Ellipse 2" cx="656" cy="88.5" rx="44" ry="43.5" fill="#D9D9D9" stroke="#5AAB8E" stroke-width="4"/>
<path id="Star 1" d="M120 234.854L123.962 247.047L124.299 248.084H125.388H138.209L127.837 255.619L126.955 256.26L127.292 257.296L131.254 269.489L120.882 261.954L120 261.313L119.118 261.954L108.746 269.489L112.708 257.296L113.045 256.26L112.163 255.619L101.791 248.084H114.612H115.701L116.038 247.047L120 234.854Z" fill="#D9D9D9" stroke="#FF758E" stroke-width="3"/>
<path id="Star 2" d="M612 517.854L615.962 530.047L616.299 531.084H617.388H630.209L619.837 538.619L618.955 539.26L619.292 540.296L623.254 552.489L612.882 544.954L612 544.313L611.118 544.954L600.746 552.489L604.708 540.296L605.045 539.26L604.163 538.619L593.791 531.084H606.612H607.701L608.038 530.047L612 517.854Z" fill="#D9D9D9" stroke="#E3FF75" stroke-width="3"/>
<path id="Star 5" d="M58 493.854L61.9618 506.047L62.2985 507.084H63.3883H76.2088L65.8368 514.619L64.9552 515.26L65.2919 516.296L69.2537 528.489L58.8817 520.954L58 520.313L57.1183 520.954L46.7463 528.489L50.7081 516.296L51.0448 515.26L50.1632 514.619L39.7912 507.084H52.6117H53.7015L54.0382 506.047L58 493.854Z" fill="#D9D9D9" stroke="#75BDFF" stroke-width="3"/>
<path id="Star 3" d="M876 363.854L881.533 380.884L881.87 381.92H882.96H900.866L886.38 392.446L885.498 393.086L885.835 394.123L891.368 411.152L876.882 400.627L876 399.987L875.118 400.627L860.632 411.152L866.165 394.123L866.502 393.086L865.62 392.446L851.134 381.92H869.04H870.13L870.467 380.884L876 363.854Z" fill="#D9D9D9" stroke="#FF8E75" stroke-width="3"/>
<path id="Star 4" d="M298 123.854L303.533 140.884L303.87 141.92H304.96H322.866L308.38 152.446L307.498 153.086L307.835 154.123L313.368 171.152L298.882 160.627L298 159.987L297.118 160.627L282.632 171.152L288.165 154.123L288.502 153.086L287.62 152.446L273.134 141.92H291.04H292.13L292.467 140.884L298 123.854Z" fill="#D9D9D9" stroke="#75FFE6" stroke-width="3"/>
<g id="Polygon 2" filter="url(#filter1_dd_0_1)">
<path d="M564.402 234.5C565.557 232.5 568.443 232.5 569.598 234.5L603.373 293C604.528 295 603.084 297.5 600.775 297.5H533.225C530.916 297.5 529.472 295 530.627 293L564.402 234.5Z" fill="#D9D9D9"/>
<path d="M567.433 235.75L601.208 294.25C601.4 294.583 601.16 295 600.775 295H533.225C532.84 295 532.6 294.583 532.792 294.25L566.567 235.75C566.759 235.417 567.241 235.417 567.433 235.75Z" stroke="#9C9C9C" stroke-width="5"/>
</g>
<g id="Polygon 3" filter="url(#filter2_dd_0_1)">
<path d="M129.806 353.547C132.116 353.55 133.556 356.052 132.398 358.051L98.5417 416.504C97.3843 418.502 94.4975 418.498 93.3456 416.496L59.652 357.949C58.5001 355.948 59.9469 353.45 62.2563 353.453L129.806 353.547Z" fill="#D9D9D9"/>
<path d="M130.235 356.798L96.3784 415.251C96.1855 415.584 95.7044 415.583 95.5124 415.249L61.8188 356.702C61.6268 356.369 61.868 355.953 62.2529 355.953L129.803 356.047C130.188 356.048 130.428 356.465 130.235 356.798Z" stroke="#9C9C9C" stroke-width="5"/>
</g>
<g id="line">
<path id="Vector 1" d="M213 631C269.8 574.6 357.5 528.054 404 471.5C422.5 449 532.3 435.5 547.5 387.5C566.5 327.5 733.5 355.5 733.5 282C733.5 208.5 780 209 780 163.5C780 127.1 744.333 40 726.5 1" stroke="url(#paint0_linear_0_1)" stroke-width="3"/>
</g>
<defs>
<filter id="filter0_d_0_1" x="117.979" y="38.0626" width="66.0414" height="59.6874" filterUnits="userSpaceOnUse" color-interpolation-filters="sRGB">
<feFlood flood-opacity="0" result="BackgroundImageFix"/>
<feColorMatrix in="SourceAlpha" type="matrix" values="0 0 0 0 0 0 0 0 0 0 0 0 0 0 0 0 0 0 127 0" result="hardAlpha"/>
<feOffset dy="4"/>
<feGaussianBlur stdDeviation="2"/>
<feComposite in2="hardAlpha" operator="out"/>
<feColorMatrix type="matrix" values="0 0 0 0 0 0 0 0 0 0 0 0 0 0 0 0 0 0 0.25 0"/>
<feBlend mode="normal" in2="BackgroundImageFix" result="effect1_dropShadow_0_1"/>
<feBlend mode="normal" in="SourceGraphic" in2="effect1_dropShadow_0_1" result="shape"/>
</filter>
<filter id="filter1_dd_0_1" x="526.221" y="230" width="81.5589" height="72.5" filterUnits="userSpaceOnUse" color-interpolation-filters="sRGB">
<feFlood flood-opacity="0" result="BackgroundImageFix"/>
<feColorMatrix in="SourceAlpha" type="matrix" values="0 0 0 0 0 0 0 0 0 0 0 0 0 0 0 0 0 0 127 0" result="hardAlpha"/>
<feMorphology radius="1" operator="dilate" in="SourceAlpha" result="effect1_dropShadow_0_1"/>
<feOffset dy="1"/>
<feGaussianBlur stdDeviation="1.5"/>
<feColorMatrix type="matrix" values="0 0 0 0 0 0 0 0 0 0 0 0 0 0 0 0 0 0 0.15 0"/>
<feBlend mode="normal" in2="BackgroundImageFix" result="effect1_dropShadow_0_1"/>
<feColorMatrix in="SourceAlpha" type="matrix" values="0 0 0 0 0 0 0 0 0 0 0 0 0 0 0 0 0 0 127 0" result="hardAlpha"/>
<feOffset dy="1"/>
<feGaussianBlur stdDeviation="1"/>
<feColorMatrix type="matrix" values="0 0 0 0 0 0 0 0 0 0 0 0 0 0 0 0 0 0 0.3 0"/>
<feBlend mode="normal" in2="effect1_dropShadow_0_1" result="effect2_dropShadow_0_1"/>
<feBlend mode="normal" in="SourceGraphic" in2="effect2_dropShadow_0_1" result="shape"/>
</filter>
<filter id="filter2_dd_0_1" x="41.2477" y="343.453" width="109.559" height="100.547" filterUnits="userSpaceOnUse" color-interpolation-filters="sRGB">
<feFlood flood-opacity="0" result="BackgroundImageFix"/>
<feColorMatrix in="SourceAlpha" type="matrix" values="0 0 0 0 0 0 0 0 0 0 0 0 0 0 0 0 0 0 127 0" result="hardAlpha"/>
<feOffset dy="4"/>
<feGaussianBlur stdDeviation="2"/>
<feColorMatrix type="matrix" values="0 0 0 0 0 0 0 0 0 0 0 0 0 0 0 0 0 0 0.3 0"/>
<feBlend mode="normal" in2="BackgroundImageFix" result="effect1_dropShadow_0_1"/>
<feColorMatrix in="SourceAlpha" type="matrix" values="0 0 0 0 0 0 0 0 0 0 0 0 0 0 0 0 0 0 127 0" result="hardAlpha"/>
<feMorphology radius="6" operator="dilate" in="SourceAlpha" result="effect2_dropShadow_0_1"/>
<feOffset dy="8"/>
<feGaussianBlur stdDeviation="6"/>
<feColorMatrix type="matrix" values="0 0 0 0 0 0 0 0 0 0 0 0 0 0 0 0 0 0 0.15 0"/>
<feBlend mode="normal" in2="effect1_dropShadow_0_1" result="effect2_dropShadow_0_1"/>
<feBlend mode="normal" in="SourceGraphic" in2="effect2_dropShadow_0_1" result="shape"/>
</filter>
<linearGradient id="paint0_linear_0_1" x1="969" y1="111.769" x2="-172.012" y2="645.294" gradientUnits="userSpaceOnUse">
<stop stop-color="#3AD4F7"/>
<stop offset="0.525" stop-color="#1FCC03"/>
</linearGradient>
</defs>
</svg>
