<svg width="963" height="544" viewBox="0 0 963 544" fill="none" xmlns="http://www.w3.org/2000/svg">
<g id="undraw_in_sync_re_jlqd 1" clip-path="url(#clip0_0_1)">
<path id="Vector" d="M151.182 274.258C150.596 275.029 149.849 275.661 148.993 276.111C148.136 276.561 147.192 276.818 146.225 276.864C145.259 276.909 144.294 276.742 143.399 276.375C142.505 276.007 141.701 275.448 141.046 274.736L119.48 284.115L121.581 272.077L141.738 265.016C143.006 263.994 144.606 263.473 146.232 263.552C147.859 263.63 149.401 264.303 150.565 265.442C151.729 266.582 152.435 268.108 152.549 269.733C152.662 271.358 152.176 272.968 151.182 274.258Z" fill="#A0616A"/>
<path id="Vector_2" d="M214.459 143.393C220.589 131.738 222.101 118.201 218.693 105.48C218.354 104.22 220.328 103.761 220.666 105.02C224.187 118.263 222.585 132.348 216.179 144.462C215.568 145.616 213.851 144.541 214.459 143.393Z" fill="white"/>
<path id="Vector_3" d="M271.918 86.9545C265.836 84.8308 260.707 80.6144 257.447 75.0583C254.187 69.5022 253.008 62.9681 254.121 56.623C254.351 55.3399 256.355 55.6363 256.125 56.9211C255.078 62.8278 256.177 68.9142 259.223 74.0819C262.27 79.2495 267.063 83.158 272.738 85.1019C273.971 85.5258 273.144 87.3759 271.918 86.9545Z" fill="white"/>
<path id="Vector_4" d="M275.066 142.474C286.977 136.859 296.335 126.961 301.272 114.753C301.76 113.543 303.612 114.364 303.125 115.573C297.963 128.267 288.204 138.548 275.796 144.364C274.613 144.918 273.889 143.025 275.066 142.474Z" fill="white"/>
<path id="Vector_5" d="M590.519 122.958C584.384 124.924 577.75 124.646 571.802 122.172C565.854 119.699 560.979 115.191 558.047 109.455C557.458 108.292 559.237 107.322 559.827 108.486C562.547 113.833 567.089 118.031 572.633 120.323C578.176 122.615 584.357 122.85 590.058 120.985C591.298 120.582 591.751 122.557 590.519 122.958Z" fill="white"/>
<path id="Vector_6" d="M626.459 165.393C632.589 153.738 634.101 140.201 630.693 127.48C630.354 126.22 632.328 125.761 632.666 127.02C636.187 140.263 634.585 154.348 628.179 166.462C627.568 167.616 625.851 166.541 626.459 165.393Z" fill="white"/>
<g id="leafs">
<path id="Vector_7" d="M157.776 131.115C138.84 89.2301 139.539 36.1396 168.926 0.795685C178.758 49.8058 205.608 93.7585 244.727 124.878C259.857 136.824 277.929 148.536 282.062 167.366C284.634 179.082 280.988 191.475 274.686 201.68C268.384 211.887 259.598 220.282 250.913 228.556L249.939 231.387C212.147 205.222 176.712 172.999 157.776 131.115Z" fill="#D4FFC5"/>
<path id="Vector_8" d="M169.744 1.30674C162.981 38.3407 168.005 77.775 184.444 111.705C187.998 119.041 192.242 126.173 197.923 132.073C203.506 137.781 210.515 141.89 218.222 143.973C225.37 146.06 232.922 147.367 239.438 151.155C246.306 155.148 250.568 161.847 252.229 169.53C254.26 178.93 252.793 188.5 251.033 197.808C249.079 208.143 246.885 218.847 249.717 229.236C250.06 230.495 248.087 230.954 247.744 229.697C242.817 211.621 252.396 193.793 251.057 175.62C250.433 167.14 247.249 158.797 239.978 153.884C233.619 149.587 225.832 148.233 218.577 146.183C210.959 144.03 204.117 140.741 198.295 135.286C192.34 129.705 187.809 122.724 184.083 115.512C175.756 99.0931 170.062 81.4676 167.21 63.2805C163.84 42.5417 164.042 21.3793 167.808 0.708813C168.042 -0.570457 169.976 0.0358136 169.744 1.30674Z" fill="white"/>
<path id="Vector_9" d="M178.519 100.958C172.384 102.924 165.75 102.646 159.802 100.172C153.854 97.6986 148.979 93.1913 146.047 87.4551C145.458 86.2924 147.237 85.3222 147.827 86.4864C150.547 91.833 155.089 96.0311 160.633 98.3231C166.176 100.615 172.356 100.85 178.058 98.9853C179.298 98.5815 179.751 100.557 178.519 100.958Z" fill="white"/>
<path id="Vector_10" d="M166.444 43.1998C168.976 42.9337 171.402 42.0428 173.505 40.6072C175.608 39.1716 177.321 37.2363 178.491 34.9749C179.088 33.8135 180.804 34.8903 180.212 36.0441C178.908 38.5366 177.013 40.6717 174.693 42.2629C172.374 43.8542 169.699 44.8532 166.905 45.1726C166.644 45.2248 166.373 45.1757 166.147 45.0353C165.921 44.8948 165.757 44.6736 165.688 44.4166C165.628 44.1551 165.674 43.8806 165.816 43.6527C165.957 43.4249 166.183 43.2621 166.444 43.1998Z" fill="white"/>
<path id="Vector_11" d="M324.557 1.20596C324.205 1.94177 323.853 2.67757 323.51 3.42842C318.831 13.3453 314.967 23.6259 311.953 34.1687C311.707 34.9801 311.47 35.8061 311.248 36.6229C304.259 62.1003 302.06 88.6539 304.765 114.934C305.85 125.39 307.73 135.749 310.387 145.92C314.058 159.967 319.155 174.905 318.005 188.931C317.902 190.396 317.707 191.853 317.424 193.293L253.469 232.357C253.279 232.372 253.097 232.403 252.906 232.419L250.424 234.096C250.251 233.581 250.081 233.043 249.908 232.528C249.806 232.23 249.718 231.923 249.616 231.624C249.553 231.423 249.49 231.221 249.421 231.042C249.4 230.975 249.379 230.908 249.366 230.855C249.298 230.677 249.253 230.504 249.193 230.34C248.239 227.336 247.305 224.32 246.391 221.293C246.382 221.278 246.382 221.278 246.387 221.255C239.479 198.167 234.437 174.299 233.177 150.424C233.14 149.706 233.093 148.974 233.084 148.237C232.576 137.473 232.949 126.685 234.199 115.981C234.902 110.122 235.901 104.303 237.193 98.5448C240.559 83.6739 246.243 69.4249 254.037 56.3203C269.578 30.1988 293.3 9.33832 322.333 1.76303C323.076 1.56968 323.805 1.38458 324.557 1.20596Z" fill="#D4FFC5"/>
<path id="Vector_12" d="M324.909 2.1055C297.212 27.6031 277.481 62.1142 270.179 99.1027C268.6 107.1 267.694 115.349 268.678 123.48C269.699 131.399 272.821 138.9 277.721 145.204C282.171 151.173 287.415 156.764 290.337 163.712C293.416 171.035 292.786 178.95 289.486 186.084C285.449 194.812 278.516 201.57 271.506 207.942C263.724 215.017 255.528 222.243 251.534 232.243C251.05 233.455 249.198 232.633 249.681 231.424C256.63 214.025 275.012 205.558 284.884 190.241C289.491 183.094 291.972 174.516 289.124 166.215C286.635 158.957 281.232 153.187 276.674 147.181C271.887 140.876 268.405 134.131 267.041 126.27C265.646 118.229 266.231 109.926 267.598 101.924C270.835 83.8017 276.9 66.3006 285.573 50.0621C295.368 31.4744 308.271 14.6993 323.723 0.462496C324.68 -0.418274 325.859 1.2305 324.909 2.1055Z" fill="white"/>
<path id="Vector_13" d="M297.051 33.5678C299.233 34.8799 301.707 35.6294 304.25 35.7492C306.794 35.8689 309.327 35.3551 311.622 34.2539C312.798 33.6857 313.52 35.5791 312.353 36.1437C309.811 37.3485 307.012 37.9125 304.202 37.7865C301.392 37.6604 298.655 36.848 296.232 35.4204C295.992 35.305 295.805 35.1026 295.709 34.8544C295.613 34.6062 295.615 34.3308 295.715 34.0841C295.825 33.8394 296.027 33.6479 296.277 33.5512C296.527 33.4545 296.806 33.4605 297.051 33.5678Z" fill="white"/>
<path id="Vector_14" d="M569.776 153.115C550.84 111.23 551.539 58.1396 580.926 22.7957C590.758 71.8058 617.608 115.759 656.727 146.878C671.857 158.824 689.929 170.536 694.062 189.366C696.634 201.082 692.988 213.475 686.686 223.68C680.384 233.887 671.599 242.282 662.913 250.556L661.939 253.387C624.147 227.222 588.712 194.999 569.776 153.115Z" fill="#D4FFC5"/>
<path id="Vector_15" d="M581.744 23.3067C574.981 60.3407 580.005 99.775 596.444 133.705C599.998 141.041 604.242 148.173 609.923 154.073C615.506 159.781 622.515 163.89 630.222 165.973C637.37 168.06 644.922 169.367 651.438 173.155C658.306 177.148 662.568 183.847 664.229 191.53C666.26 200.93 664.793 210.5 663.033 219.808C661.079 230.143 658.885 240.847 661.717 251.236C662.06 252.495 660.087 252.954 659.744 251.697C654.817 233.621 664.396 215.793 663.057 197.62C662.433 189.14 659.249 180.797 651.978 175.884C645.619 171.587 637.832 170.233 630.577 168.183C622.959 166.03 616.117 162.741 610.295 157.286C604.34 151.705 599.809 144.724 596.083 137.512C587.755 121.093 582.062 103.468 579.21 85.2805C575.84 64.5417 576.042 43.3793 579.808 22.7088C580.042 21.4295 581.976 22.0358 581.744 23.3067Z" fill="white"/>
<path id="Vector_16" d="M578.444 65.1998C580.976 64.9337 583.403 64.0428 585.505 62.6072C587.608 61.1716 589.321 59.2363 590.491 56.9749C591.088 55.8135 592.804 56.8903 592.212 58.0441C590.908 60.5366 589.013 62.6717 586.693 64.2629C584.374 65.8542 581.7 66.8532 578.905 67.1726C578.644 67.2248 578.373 67.1757 578.147 67.0353C577.921 66.8948 577.757 66.6736 577.688 66.4166C577.628 66.1551 577.674 65.8806 577.816 65.6527C577.957 65.4249 578.183 65.2621 578.444 65.1998Z" fill="white"/>
<path id="Vector_17" d="M736.557 23.206C736.205 23.9418 735.853 24.6776 735.51 25.4284C730.831 35.3453 726.967 45.6259 723.953 56.1687C723.707 56.9801 723.47 57.8061 723.248 58.6229C716.259 84.1003 714.06 110.654 716.765 136.934C717.85 147.39 719.73 157.749 722.387 167.92C726.058 181.967 731.155 196.905 730.005 210.931C729.902 212.396 729.707 213.853 729.424 215.293L665.469 254.357C665.279 254.372 665.097 254.403 664.906 254.419L662.424 256.096C662.251 255.581 662.082 255.043 661.908 254.528C661.806 254.23 661.718 253.923 661.616 253.624C661.553 253.423 661.49 253.221 661.421 253.042C661.4 252.975 661.379 252.908 661.366 252.855C661.298 252.677 661.253 252.504 661.193 252.34C660.239 249.336 659.305 246.32 658.391 243.293C658.382 243.278 658.382 243.278 658.387 243.255C651.479 220.167 646.437 196.299 645.177 172.424C645.14 171.706 645.093 170.974 645.084 170.237C644.576 159.473 644.949 148.685 646.199 137.981C646.902 132.122 647.901 126.303 649.193 120.545C652.559 105.674 658.243 91.4249 666.037 78.3203C681.578 52.1988 705.3 31.3383 734.333 23.763C735.076 23.5697 735.805 23.3846 736.557 23.206Z" fill="#D4FFC5"/>
<path id="Vector_18" d="M736.909 24.1055C709.212 49.6031 689.481 84.1142 682.179 121.103C680.6 129.1 679.694 137.349 680.678 145.48C681.699 153.399 684.821 160.9 689.721 167.204C694.171 173.173 699.415 178.764 702.337 185.712C705.416 193.035 704.786 200.95 701.486 208.084C697.449 216.812 690.516 223.57 683.506 229.942C675.724 237.017 667.528 244.243 663.534 254.243C663.05 255.455 661.198 254.633 661.681 253.424C668.63 236.025 687.012 227.558 696.884 212.241C701.491 205.094 703.972 196.516 701.125 188.215C698.635 180.957 693.232 175.187 688.674 169.181C683.887 162.876 680.405 156.131 679.041 148.27C677.646 140.229 678.231 131.926 679.598 123.924C682.835 105.802 688.9 88.3006 697.573 72.0621C707.368 53.4744 720.271 36.6993 735.723 22.4625C736.68 21.5817 737.859 23.2305 736.909 24.1055Z" fill="white"/>
</g>
<path id="Vector_19" d="M683.918 108.954C677.836 106.831 672.707 102.614 669.447 97.0583C666.187 91.5021 665.008 84.9681 666.121 78.623C666.351 77.3399 668.355 77.6363 668.125 78.9211C667.078 84.8278 668.177 90.9142 671.223 96.0818C674.27 101.249 679.063 105.158 684.738 107.102C685.971 107.526 685.144 109.376 683.918 108.954Z" fill="white"/>
<path id="Vector_20" d="M687.066 164.474C698.977 158.859 708.335 148.961 713.272 136.753C713.76 135.543 715.612 136.364 715.125 137.573C709.963 150.267 700.204 160.548 687.796 166.364C686.613 166.918 685.889 165.025 687.066 164.474Z" fill="white"/>
<path id="Vector_21" d="M709.051 55.5678C711.233 56.8799 713.707 57.6294 716.25 57.7492C718.794 57.8689 721.327 57.3551 723.622 56.2539C724.798 55.6857 725.52 57.5791 724.353 58.1437C721.811 59.3485 719.012 59.9125 716.202 59.7865C713.392 59.6604 710.655 58.848 708.232 57.4204C707.992 57.305 707.805 57.1026 707.709 56.8544C707.613 56.6062 707.615 56.3308 707.715 56.0841C707.825 55.8394 708.027 55.6479 708.277 55.5512C708.527 55.4545 708.806 55.4605 709.051 55.5678Z" fill="white"/>
<path id="Vector_22" d="M658.934 149.345H201.858V408.836H658.934V149.345Z" fill="white"/>
<g id="pc_full">
<path id="Vector_23" d="M186.806 428.34H673.986V146.292C673.984 144.178 673.143 142.152 671.649 140.658C670.155 139.164 668.129 138.323 666.015 138.321H194.777C192.663 138.323 190.637 139.164 189.143 140.658C187.649 142.152 186.808 144.178 186.806 146.292V428.34Z" fill="#CACACA"/>
<g id="pc_bottom">
<path id="Vector_24" d="M186.382 420.708V455.513C186.382 456.956 186.666 458.384 187.218 459.717C187.77 461.05 188.58 462.262 189.6 463.282C190.62 464.302 191.831 465.112 193.164 465.664C194.497 466.216 195.926 466.5 197.369 466.5H377.184V535.189H374.795C374.607 535.189 374.422 535.226 374.249 535.297C374.075 535.369 373.918 535.474 373.786 535.607C373.653 535.739 373.548 535.897 373.476 536.07C373.404 536.243 373.368 536.429 373.368 536.616V541.394C373.368 541.581 373.404 541.767 373.476 541.94C373.548 542.113 373.653 542.27 373.786 542.403C373.918 542.535 374.075 542.641 374.249 542.712C374.422 542.784 374.607 542.821 374.795 542.821H486.421C486.609 542.821 486.794 542.784 486.968 542.712C487.141 542.641 487.298 542.535 487.431 542.403C487.563 542.27 487.668 542.113 487.74 541.94C487.812 541.767 487.849 541.581 487.849 541.394V536.616C487.849 536.429 487.812 536.243 487.74 536.07C487.668 535.897 487.563 535.739 487.431 535.607C487.298 535.474 487.141 535.369 486.968 535.297C486.794 535.226 486.609 535.189 486.421 535.189H484.033V466.5H663.847C665.29 466.5 666.719 466.216 668.052 465.664C669.385 465.112 670.596 464.302 671.617 463.282C672.637 462.262 673.446 461.05 673.998 459.717C674.55 458.384 674.835 456.956 674.835 455.513V420.708L186.382 420.708Z" fill="#3F3D56"/>
</g>
</g>
<g id="pc_row1">
<path id="Vector_25" d="M340.314 260.051H228.928C228.152 260.05 227.407 259.742 226.858 259.193C226.31 258.644 226.001 257.9 226 257.124V211.928C226.001 211.152 226.31 210.407 226.858 209.859C227.407 209.31 228.152 209.001 228.928 209H340.314C341.09 209.001 341.834 209.31 342.383 209.858C342.932 210.407 343.241 211.152 343.242 211.928V257.124C343.241 257.9 342.932 258.644 342.383 259.193C341.834 259.742 341.09 260.05 340.314 260.051Z" fill="#6C63FF"/>
<path id="Vector_26" d="M482.417 260.051H371.031C370.254 260.05 369.51 259.742 368.961 259.193C368.412 258.644 368.104 257.9 368.103 257.124V211.928C368.104 211.152 368.412 210.407 368.961 209.858C369.51 209.31 370.254 209.001 371.031 209H482.417C483.193 209.001 483.937 209.31 484.486 209.858C485.035 210.407 485.344 211.152 485.345 211.928V257.124C485.344 257.9 485.035 258.644 484.486 259.193C483.937 259.742 483.193 260.05 482.417 260.051Z" fill="#6C63FF"/>
<path id="Vector_27" d="M624.52 260.051H513.133C512.357 260.05 511.613 259.742 511.064 259.193C510.515 258.644 510.207 257.9 510.206 257.124V211.928C510.207 211.152 510.515 210.407 511.064 209.858C511.613 209.31 512.357 209.001 513.133 209H624.52C625.296 209.001 626.04 209.31 626.589 209.858C627.138 210.407 627.447 211.152 627.448 211.928V257.124C627.447 257.9 627.138 258.644 626.589 259.193C626.04 259.742 625.296 260.05 624.52 260.051Z" fill="#6C63FF"/>
</g>
<g id="tab">
<path id="Vector_28" d="M818.527 227.232L818.831 283.881L820.073 283.811L821.252 304.784L818.948 304.91L819.012 317.51L820.857 317.474L821.23 338.465L819.13 338.503L820.13 523.359C820.152 528.199 818.252 532.85 814.848 536.291C811.444 539.733 806.814 541.683 801.974 541.714L597.775 542.821C592.935 542.843 588.283 540.944 584.842 537.539C581.4 534.135 579.45 529.505 579.42 524.664L577.816 228.538C577.794 223.697 579.694 219.046 583.098 215.605C586.502 212.163 591.132 210.213 595.972 210.182L800.171 209.076C805.011 209.056 809.661 210.956 813.102 214.359C816.543 217.763 818.494 222.392 818.527 227.232Z" fill="#3F3D56"/>
</g>
<g id="tap_display">
<path id="Vector_29" d="M802.27 530.068L597.352 531.179C595.86 531.186 594.426 530.6 593.366 529.551C592.305 528.502 591.704 527.074 591.694 525.583L590.078 227.487C590.071 225.995 590.657 224.562 591.706 223.501C592.755 222.44 594.183 221.839 595.674 221.829L800.592 220.718C802.084 220.712 803.518 221.297 804.578 222.347C805.639 223.396 806.24 224.823 806.25 226.315L807.867 524.41C807.873 525.902 807.287 527.336 806.238 528.396C805.189 529.457 803.762 530.058 802.27 530.068Z" fill="white"/>
</g>
<path id="Vector_30" d="M697.324 216.774C698.182 216.774 698.877 216.079 698.877 215.221C698.877 214.364 698.182 213.668 697.324 213.668C696.466 213.668 695.771 214.364 695.771 215.221C695.771 216.079 696.466 216.774 697.324 216.774Z" fill="white"/>
<g id="tab_large_box">
<path id="Vector_31" d="M758.272 304.622H639.672C638.846 304.621 638.053 304.292 637.469 303.708C636.884 303.124 636.556 302.331 636.555 301.505V253.382C636.556 252.556 636.884 251.763 637.469 251.179C638.053 250.594 638.846 250.266 639.672 250.265H758.272C759.099 250.266 759.891 250.594 760.475 251.179C761.06 251.763 761.388 252.556 761.389 253.382V301.505C761.388 302.331 761.06 303.124 760.475 303.708C759.891 304.292 759.099 304.621 758.272 304.622Z" fill="#6C63FF"/>
<path id="Vector_32" d="M758.272 444.257H639.672C638.846 444.256 638.053 443.927 637.469 443.343C636.884 442.758 636.556 441.966 636.555 441.139V393.017C636.556 392.19 636.884 391.398 637.469 390.814C638.053 390.229 638.846 389.9 639.672 389.899H758.272C759.099 389.9 759.891 390.229 760.475 390.813C761.06 391.398 761.388 392.19 761.389 393.017V441.139C761.388 441.966 761.06 442.758 760.475 443.343C759.891 443.927 759.099 444.256 758.272 444.257Z" fill="#6C63FF"/>
</g>
<g id="mobile">
<path id="Vector_33" d="M231.318 528.274L230.923 365.02L232.412 365.017L232.34 334.99L230.852 334.994L230.73 284.87C230.725 282.998 230.352 281.145 229.632 279.417C228.911 277.689 227.857 276.12 226.53 274.8C225.203 273.479 223.629 272.433 221.898 271.721C220.167 271.008 218.312 270.644 216.44 270.649L110.354 270.905C108.482 270.909 106.629 271.282 104.901 272.003C103.173 272.723 101.604 273.777 100.284 275.104C98.9631 276.431 97.9168 278.005 97.2045 279.736C96.4922 281.468 96.1279 283.322 96.1324 285.194L96.2168 320.144L93.8464 320.203L94.3699 341.196L96.2675 341.149L96.2788 345.781L94.2594 345.832L94.7829 366.825L96.3295 366.787L96.7205 528.599C96.7215 530.472 97.0923 532.327 97.8117 534.056C98.531 535.786 99.5848 537.356 100.912 538.677C102.24 539.999 103.816 541.045 105.548 541.756C107.281 542.467 109.138 542.829 111.011 542.821L217.096 542.565C220.876 542.551 224.496 541.039 227.162 538.36C229.828 535.681 231.323 532.054 231.318 528.274Z" fill="#3F3D56"/>
</g>
<g id="mobile_display">
<path id="Vector_34" d="M107.767 536.288C106.444 535.812 105.299 534.941 104.488 533.793C103.678 532.644 103.241 531.274 103.236 529.868L102.642 283.894C102.638 282.083 103.353 280.344 104.631 279.06C105.909 277.776 107.645 277.052 109.456 277.047L132.028 276.993L131.749 277.682C131.264 278.879 131.081 280.176 131.216 281.46C131.35 282.745 131.799 283.976 132.522 285.046C133.245 286.116 134.219 286.992 135.36 287.596C136.501 288.2 137.774 288.515 139.065 288.512L189.158 288.391C190.405 288.282 191.609 287.882 192.672 287.221C193.736 286.561 194.629 285.66 195.279 284.59C195.92 283.539 196.303 282.352 196.398 281.124C196.492 279.897 196.295 278.664 195.823 277.527L195.54 276.839L218.855 276.783C220.666 276.781 222.404 277.497 223.688 278.775C224.972 280.052 225.696 281.787 225.703 283.598L226.27 518.277C226.276 523.083 224.376 527.694 220.986 531.1C217.596 534.506 212.993 536.429 208.188 536.446L110.084 536.683C109.294 536.686 108.51 536.552 107.767 536.288Z" fill="white"/>
</g>
<path id="Vector_35" d="M146.413 282.823C147.27 282.823 147.966 282.128 147.966 281.27C147.966 280.412 147.27 279.717 146.413 279.717C145.555 279.717 144.86 280.412 144.86 281.27C144.86 282.128 145.555 282.823 146.413 282.823Z" fill="white"/>
<g id="mobile_large_box">
<path id="Vector_36" d="M209.716 349.94H129.118C128.557 349.939 128.018 349.716 127.621 349.319C127.224 348.922 127.001 348.383 127 347.822V315.118C127.001 314.557 127.224 314.018 127.621 313.621C128.018 313.224 128.557 313.001 129.118 313H209.716C210.278 313.001 210.816 313.224 211.213 313.621C211.611 314.018 211.834 314.557 211.835 315.118V347.822C211.834 348.383 211.611 348.922 211.213 349.319C210.816 349.716 210.278 349.939 209.716 349.94Z" fill="#6C63FF"/>
<path id="Vector_37" d="M209.716 447.94H129.118C128.557 447.939 128.018 447.716 127.621 447.319C127.224 446.922 127.001 446.383 127 445.822V413.118C127.001 412.557 127.224 412.018 127.621 411.621C128.018 411.224 128.557 411.001 129.118 411H209.716C210.278 411.001 210.816 411.224 211.213 411.621C211.611 412.018 211.834 412.557 211.835 413.118V445.822C211.834 446.383 211.611 446.922 211.213 447.319C210.816 447.716 210.278 447.939 209.716 447.94Z" fill="#6C63FF"/>
</g>
<g id="person1">
<path id="Vector_38" d="M136.791 278.017L86.7012 300.329L86.5938 300.29L29.5045 279.947C25.2521 277.724 22.0102 273.96 20.4424 269.426C18.8746 264.891 19.0997 259.928 21.0714 255.554C22.1644 253.137 23.7568 250.979 25.7439 249.222C27.7309 247.465 30.0675 246.149 32.6 245.36C35.1324 244.571 37.8032 244.328 40.4365 244.646C43.0698 244.963 45.606 245.835 47.8781 247.204L90.3631 272.796L131.56 267.457L136.791 278.017Z" fill="#3F3D56"/>
<path id="Vector_39" d="M26.276 533.887L35.034 533.886L39.2 500.107H26.274L26.276 533.887Z" fill="#A0616A"/>
<path id="Vector_40" d="M24.042 531.027L26.507 531.027L36.1309 527.114L41.289 531.027C44.2039 531.027 47.0002 532.185 49.0614 534.246C51.1226 536.307 52.2806 539.103 52.2808 542.018V542.375L24.0425 542.376L24.042 531.027Z" fill="#2F2E41"/>
<path id="Vector_41" d="M60.214 528.368L68.756 530.297L80.261 498.265L67.653 495.418L60.214 528.368Z" fill="#A0616A"/>
<path id="Vector_42" d="M58.6644 525.087L61.0689 525.63L71.3185 523.932L75.4879 528.885C78.3312 529.528 80.8037 531.273 82.3602 533.738C83.9168 536.202 84.4306 539.184 83.7887 542.028L83.71 542.376L56.1651 536.157L58.6644 525.087Z" fill="#2F2E41"/>
<path id="Vector_43" d="M15.1841 327.376C11.0781 339.76 11.5122 353.202 16.171 367.629L18.1626 448.858C18.1626 448.858 15.1953 502.125 24.7702 520.87H38.6564L45.5317 443.993L46.3951 392.393L76.1657 435.926L57.2039 519.613L74.2946 521.141L105.064 430.321L67.1005 342.21L15.1841 327.376Z" fill="#2F2E41"/>
<path id="Vector_44" d="M69.5767 344.811L19.0832 336.735C17.7589 336.311 16.5421 335.605 15.5163 334.666C14.4904 333.727 13.6799 332.578 13.1403 331.296C12.6007 330.015 12.3449 328.631 12.3903 327.242C12.4357 325.852 12.7814 324.488 13.4035 323.245L15.6933 318.664L14.8038 270.544C14.6966 264.284 16.2397 258.107 19.2779 252.634C22.3161 247.16 26.7423 242.583 32.1111 239.363L37.0351 236.419L39.5235 230.1L62.4695 230.659L62.5364 238.947L70.7539 252.051L70.7536 252.105L70.238 323.427L67.9732 330.787L71.3977 339.348L69.5767 344.811Z" fill="#3F3D56"/>
<g id="person1_head">
<path id="Vector_45" d="M53.0979 222.242C64.6123 222.242 73.9467 212.907 73.9467 201.393C73.9467 189.878 64.6123 180.544 53.0979 180.544C41.5834 180.544 32.2491 189.878 32.2491 201.393C32.2491 212.907 41.5834 222.242 53.0979 222.242Z" fill="#A0616A"/>
<path id="Vector_46" d="M31.3879 205.938C30.766 203.318 31.0515 199.632 31.4029 196.994C31.853 193.516 33.0288 190.171 34.8542 187.176C36.6796 184.182 39.1139 181.604 41.9992 179.61C43.1055 178.77 44.4201 178.248 45.8014 178.099C46.4918 178.041 47.1829 178.203 47.7757 178.562C48.3685 178.92 48.8326 179.457 49.1016 180.096C49.4493 179.228 49.9712 178.44 50.6351 177.782C51.2989 177.124 52.0907 176.608 52.9614 176.268C54.7105 175.598 56.5917 175.344 58.4558 175.528C62.069 175.826 65.5342 177.096 68.4836 179.204C71.433 181.313 73.7566 184.18 75.2078 187.502C75.7647 188.825 77.3201 183.939 78.0256 185.189C78.674 186.488 79.8052 187.482 81.1771 187.958C82.5596 188.344 83.1211 194.04 83.6652 192.711C84.0873 193.693 84.2542 194.765 84.1502 195.829C84.0462 196.892 83.6749 197.912 83.0706 198.793C82.4664 199.675 81.649 200.389 80.6945 200.869C79.74 201.349 78.6795 201.58 77.6117 201.54C76.216 201.36 74.8325 201.095 73.4687 200.747C70.9647 200.432 68.4317 201.044 66.3482 202.468C64.2646 203.892 62.7746 206.03 62.1594 208.478C61.7789 207.055 61.1709 205.702 60.3591 204.472C59.947 203.861 59.3948 203.357 58.7485 203.001C58.1022 202.646 57.3804 202.451 56.6433 202.431C55.9386 202.512 55.2579 202.736 54.643 203.089C54.028 203.443 53.4918 203.918 53.0673 204.486C52.1495 205.564 51.4601 206.821 50.5355 207.893C47.8225 211.039 44.153 218.373 40.2866 217.838C37.2353 217.416 32.2369 209.515 31.3879 205.938Z" fill="#2F2E41"/>
</g>
<g id="person1_hand">
<path id="Vector_47" d="M130.82 329.593C129.933 329.979 128.972 330.165 128.005 330.139C127.037 330.113 126.088 329.875 125.223 329.442C124.357 329.009 123.598 328.392 122.997 327.634C122.396 326.876 121.968 325.995 121.745 325.054L98.347 322.69L106.066 313.216L127.102 316.913C128.708 316.642 130.357 316.97 131.738 317.834C133.119 318.698 134.135 320.038 134.593 321.601C135.051 323.164 134.92 324.841 134.225 326.314C133.53 327.787 132.318 328.954 130.82 329.593Z" fill="#A0616A"/>
<path id="Vector_48" d="M116.429 325.835L61.8261 320.804L61.7511 320.718L21.9007 275.056C19.2781 271.038 18.2906 266.17 19.1405 261.447C19.9904 256.725 22.6134 252.506 26.4723 249.655C28.6074 248.081 31.0517 246.978 33.6441 246.417C36.2366 245.856 38.9184 245.85 41.5131 246.4C44.1079 246.951 46.5567 248.044 48.6983 249.609C50.84 251.174 52.6259 253.174 53.9387 255.479L78.4834 298.578L117.03 314.066L116.429 325.835Z" fill="#3F3D56"/>
</g>
<g id="person2">
<path id="Vector_49" d="M821.379 345.137C822.249 344.923 823.061 344.52 823.758 343.959C824.456 343.397 825.021 342.689 825.416 341.884C825.81 341.08 826.023 340.2 826.04 339.304C826.057 338.409 825.877 337.52 825.513 336.702L841.413 321.832L830.414 319.189L817.002 333.715C815.667 334.416 814.636 335.583 814.105 336.994C813.573 338.405 813.577 339.962 814.117 341.37C814.657 342.778 815.694 343.939 817.033 344.633C818.371 345.328 819.918 345.507 821.379 345.137Z" fill="#FFB6B6"/>
<path id="Vector_50" d="M829.593 333.159L822.178 322.704L850.029 293.898L856.496 248.491C856.816 246.247 857.626 244.1 858.869 242.204C860.111 240.308 861.756 238.708 863.686 237.519C865.616 236.33 867.785 235.58 870.037 235.324C872.29 235.067 874.571 235.309 876.719 236.033C880.598 237.345 883.798 240.142 885.617 243.811C887.436 247.48 887.726 251.72 886.422 255.602L869.922 304.555L829.593 333.159Z" fill="#7C7A7A"/>
<path id="Vector_51" d="M881.887 526.632H873.656L869.74 494.882L881.889 494.883L881.887 526.632Z" fill="#FFB6B6"/>
<path id="Vector_52" d="M886.316 542.261H880.475L879.432 536.747L876.762 542.261H861.271C860.528 542.261 859.805 542.024 859.207 541.584C858.609 541.144 858.167 540.524 857.946 539.815C857.725 539.106 857.737 538.345 857.979 537.643C858.221 536.942 858.681 536.335 859.292 535.913L871.663 527.37V521.795L884.675 522.571L886.316 542.261Z" fill="#2F2E41"/>
<path id="Vector_53" d="M932.67 518.256L925.44 522.19L906.825 496.174L917.496 490.367L932.67 518.256Z" fill="#FFB6B6"/>
<path id="Vector_54" d="M944.03 529.868L938.9 532.659L935.348 528.314L935.638 534.434L922.031 541.838C921.379 542.193 920.631 542.33 919.895 542.23C919.159 542.129 918.475 541.796 917.942 541.279C917.409 540.762 917.055 540.088 916.933 539.356C916.81 538.623 916.924 537.871 917.259 537.208L924.042 523.791L921.377 518.894L933.178 513.357L944.03 529.868Z" fill="#2F2E41"/>
<path id="Vector_55" d="M885.355 515.326H868.344V454.751L857.813 415.259C850.255 387.017 848.246 357.577 851.898 328.57L851.913 328.452L852.005 328.375C852.275 328.148 879.229 305.861 896.278 322.91C907.77 334.402 896.972 375.725 896.367 377.993V449.229L885.355 515.326Z" fill="#2F2E41"/>
<path id="Vector_56" d="M885.314 229.706L885.224 229.616L863.534 229.946L851.954 257.126C841.234 273.776 851.484 283.246 852.204 284.746L850.154 305.176L848.834 318.356L846.714 339.576L896.424 323.336L890.894 301.186L897.284 269.236C898.703 262.171 898.352 254.865 896.264 247.968C894.175 241.071 890.414 234.797 885.314 229.706Z" fill="#7C7A7A"/>
<path id="Vector_57" d="M875.207 455.064L910.153 504.218L923.558 494.687L894.373 434.711L875.207 455.064Z" fill="#2F2E41"/>
<path id="Vector_58" opacity="0.1" d="M891.664 281.866L869.824 307.066L848.834 318.356L850.154 305.176L862.514 298.236L891.664 281.866Z" fill="black"/>
<g id="person2_head">
<path id="Vector_59" d="M872.352 224.424C883.411 224.424 892.376 215.459 892.376 204.4C892.376 193.341 883.411 184.375 872.352 184.375C861.293 184.375 852.328 193.341 852.328 204.4C852.328 215.459 861.293 224.424 872.352 224.424Z" fill="#FFB6B6"/>
<path id="Vector_60" d="M858.327 241.926L856.448 233.693C855.831 230.938 855.771 228.087 856.272 225.308C856.774 222.529 857.826 219.879 859.368 217.514C860.784 215.283 861.574 212.713 861.653 210.072C861.733 207.431 861.1 204.818 859.82 202.506C858.876 200.638 857.441 199.061 855.67 197.945C853.899 196.829 851.857 196.216 849.764 196.172H849.264V195.672C849.264 188.492 854.86 183.424 860.062 183.133C860.25 181.639 861.309 180.3 863.154 179.236C867.558 176.697 876.075 176.146 882.51 179.531C882.629 178.436 883.042 177.395 883.705 176.516C884.368 175.637 885.256 174.954 886.276 174.539C887.333 174.171 888.472 174.106 889.565 174.35C889.659 172.55 890.402 170.845 891.657 169.551C893.433 167.83 896.283 167.175 899.477 167.752C903.863 168.548 908.186 171.342 911.65 175.621C914.72 179.414 916.852 183.884 918.914 188.207C920.942 192.458 923.038 196.854 926.077 200.576C929.406 204.654 933.531 207.296 937.692 208.016C942.545 208.855 947.526 206.857 949.805 203.158L950.258 202.424L950.67 203.182C953.23 207.887 952.183 214.352 948.178 218.554C944.588 222.323 938.952 224.243 933.109 223.685C928.162 223.215 923.172 221.113 918.278 217.437C913.417 213.787 910.41 209.752 909.343 205.444C909.044 204.111 908.829 202.76 908.7 201.4C908.369 198.552 908.057 195.861 906.304 193.88C904.73 192.1 902.292 191.328 900.131 190.745L899.707 190.631C899.629 191.434 899.378 192.209 898.97 192.905C898.562 193.6 898.007 194.198 897.345 194.656C896.946 194.896 896.51 195.064 896.054 195.153C898.56 205.239 897.53 212.96 892.989 218.108C885.324 226.799 870.597 225.012 869.973 224.932L869.559 224.878L869.538 224.461C869.482 223.341 869.345 222.226 869.128 221.125C867.019 226.208 859.923 239.647 858.973 241.003L858.327 241.926Z" fill="#2F2E41"/>
</g>
<path id="Vector_61" d="M961.485 543.621H1.19068C0.87549 543.62 0.573519 543.494 0.350967 543.271C0.128416 543.048 0.00344849 542.746 0.00344849 542.43C0.00344849 542.115 0.128416 541.813 0.350967 541.59C0.573519 541.367 0.87549 541.241 1.19068 541.24H961.485C961.8 541.24 962.103 541.365 962.327 541.589C962.55 541.812 962.675 542.115 962.675 542.43C962.675 542.746 962.55 543.049 962.327 543.272C962.103 543.496 961.8 543.621 961.485 543.621Z" fill="#CCCCCC"/>
</g>
</g>
<g id="person2_hand">
<path id="Vector_62" d="M794.484 330.797C795.376 330.882 796.275 330.771 797.119 330.472C797.963 330.172 798.731 329.692 799.369 329.063C800.007 328.435 800.5 327.674 800.812 326.834C801.124 325.995 801.248 325.097 801.176 324.205L821.1 315.433L811.595 309.299L794.132 318.569C792.641 318.79 791.282 319.55 790.313 320.706C789.345 321.861 788.834 323.332 788.877 324.839C788.921 326.346 789.515 327.785 790.549 328.883C791.582 329.981 792.982 330.662 794.484 330.797Z" fill="#FFB6B6"/>
<path id="Vector_63" d="M806.198 322.211L802.66 309.892L838.475 291.924L859.602 251.214C860.646 249.202 862.121 247.445 863.921 246.066C865.721 244.688 867.802 243.723 870.017 243.24C872.232 242.756 874.526 242.766 876.737 243.269C878.947 243.772 881.02 244.756 882.808 246.15C886.034 248.671 888.128 252.37 888.631 256.434C889.133 260.498 888.003 264.595 885.489 267.827L853.72 308.563L806.198 322.211Z" fill="#7C7A7A"/>
</g>
</g>
<defs>
<clipPath id="clip0_0_1">
<rect width="962.675" height="543.621" fill="white"/>
</clipPath>
</defs>
</svg>
