<svg width="1705" height="2039" viewBox="0 0 1705 2039" fill="none" xmlns="http://www.w3.org/2000/svg">
<path id="Rectangle _2" d="M523.927 1293.37C525.267 1290.96 528.31 1290.09 530.725 1291.43L594.602 1326.87C597.016 1328.21 597.888 1331.25 596.548 1333.67L560.047 1399.45C558.707 1401.87 555.663 1402.74 553.249 1401.4L489.372 1365.95C486.957 1364.62 486.086 1361.57 487.426 1359.16L523.927 1293.37Z" fill="white"/>
<rect id="Rectangle_4" x="1239.52" y="717.189" width="108.122" height="107.498" rx="13.5" transform="rotate(-39.7086 1239.52 717.189)" stroke="white" stroke-width="3"/>
<rect id="Rectangle_6" x="255.816" y="719.32" width="79.0505" height="81.2329" rx="13" transform="rotate(-39.7086 255.816 719.32)" stroke="white" stroke-width="4"/>
<rect id="Rectangle_5" x="32.1123" y="1580.45" width="77.2182" height="82.2329" rx="18.5" transform="rotate(-39.7086 32.1123 1580.45)" stroke="white" stroke-width="3"/>
<rect id="Rectangle_3" x="1496.79" y="1359.55" width="114.876" height="113.501" rx="13" transform="rotate(-36.1416 1496.79 1359.55)" stroke="white" stroke-width="4"/>
<path id="Polygon_1" d="M206.644 1106.29C207.033 1105.64 207.967 1105.64 208.356 1106.29L242.444 1162.73C242.846 1163.4 242.366 1164.25 241.588 1164.25H173.412C172.634 1164.25 172.154 1163.4 172.556 1162.73L206.644 1106.29Z" stroke="white" stroke-width="4"/>
<path id="Ellipse_1" d="M1070 1187.5C1070 1211.52 1050.3 1231 1026 1231C1001.7 1231 982 1211.52 982 1187.5C982 1163.48 1001.7 1144 1026 1144C1050.3 1144 1070 1163.48 1070 1187.5Z" stroke="white" stroke-width="4"/>
<path id="Ellipse_2" d="M1702.5 1061.5C1702.5 1085.52 1682.8 1105 1658.5 1105C1634.2 1105 1614.5 1085.52 1614.5 1061.5C1614.5 1037.48 1634.2 1018 1658.5 1018C1682.8 1018 1702.5 1037.48 1702.5 1061.5Z" stroke="white" stroke-width="4"/>
<path id="Star_1" d="M564 984.264L571.533 1009.6L571.852 1010.68H572.971H597.699L577.582 1026.65L576.788 1027.28L577.077 1028.25L584.691 1053.87L564.933 1038.18L564 1037.44L563.067 1038.18L543.309 1053.87L550.923 1028.25L551.212 1027.28L550.418 1026.65L530.301 1010.68H555.029H556.148L556.467 1009.6L564 984.264Z" stroke="white" stroke-width="3"/>
<path id="Star_2" d="M1162 1551.81L1171.8 1581.67L1172.14 1582.7H1173.23H1204.9L1179.29 1601.12L1178.4 1601.77L1178.74 1602.81L1188.53 1632.64L1162.88 1614.19L1162 1613.56L1161.12 1614.19L1135.47 1632.64L1145.26 1602.81L1145.6 1601.77L1144.71 1601.12L1119.1 1582.7H1150.77H1151.86L1152.2 1581.67L1162 1551.81Z" stroke="white" stroke-width="3"/>
<path id="Star_5" d="M626 1707.85L629.962 1720.05L630.299 1721.08H631.388H644.209L633.837 1728.62L632.955 1729.26L633.292 1730.3L637.254 1742.49L626.882 1734.95L626 1734.31L625.118 1734.95L614.746 1742.49L618.708 1730.3L619.045 1729.26L618.163 1728.62L607.791 1721.08H620.612H621.701L622.038 1720.05L626 1707.85Z" stroke="white" stroke-width="3"/>
<path id="Star_3" d="M1315 1986.85L1320.53 2003.88L1320.87 2004.92H1321.96H1339.87L1325.38 2015.45L1324.5 2016.09L1324.83 2017.12L1330.37 2034.15L1315.88 2023.63L1315 2022.99L1314.12 2023.63L1299.63 2034.15L1305.17 2017.12L1305.5 2016.09L1304.62 2015.45L1290.13 2004.92H1308.04H1309.13L1309.47 2003.88L1315 1986.85Z" stroke="white" stroke-width="3"/>
<path id="Star_4" d="M30 1955.85L35.5333 1972.88L35.8701 1973.92H36.9599H54.8662L40.3797 1984.45L39.4981 1985.09L39.8348 1986.12L45.3682 2003.15L30.8817 1992.63L30 1991.99L29.1183 1992.63L14.6318 2003.15L20.1652 1986.12L20.5019 1985.09L19.6203 1984.45L5.13377 1973.92H23.0401H24.1299L24.4667 1972.88L30 1955.85Z" stroke="white" stroke-width="3"/>
<g id="Polygon_2" filter="url(#filter0_dd_0_1)">
<path d="M880.567 717.75C880.759 717.417 881.241 717.417 881.433 717.75L915.208 776.25C915.4 776.583 915.16 777 914.775 777H847.225C846.84 777 846.6 776.583 846.792 776.25L880.567 717.75L878.457 716.532L880.567 717.75Z" stroke="white" stroke-width="5"/>
</g>
<path id="Polygon_3" d="M998.251 1764.5C998.636 1764.5 998.876 1764.91 998.683 1765.25L964.827 1823.7C964.634 1824.03 964.153 1824.03 963.961 1823.7L930.267 1765.15C930.075 1764.82 930.316 1764.4 930.701 1764.4L998.251 1764.5L998.254 1762.06L998.251 1764.5Z" stroke="white" stroke-width="5"/>
<rect id="Rectangle_7" x="163.314" y="179.222" width="275" height="241" rx="28.5" transform="rotate(-43.494 163.314 179.222)" stroke="white" stroke-width="3"/>
<defs>
<filter id="filter0_dd_0_1" x="840.221" y="712" width="81.5589" height="72.5" filterUnits="userSpaceOnUse" color-interpolation-filters="sRGB">
<feFlood flood-opacity="0" result="BackgroundImageFix"/>
<feColorMatrix in="SourceAlpha" type="matrix" values="0 0 0 0 0 0 0 0 0 0 0 0 0 0 0 0 0 0 127 0" result="hardAlpha"/>
<feMorphology radius="1" operator="dilate" in="SourceAlpha" result="effect1_dropShadow_0_1"/>
<feOffset dy="1"/>
<feGaussianBlur stdDeviation="1.5"/>
<feColorMatrix type="matrix" values="0 0 0 0 0 0 0 0 0 0 0 0 0 0 0 0 0 0 0.15 0"/>
<feBlend mode="normal" in2="BackgroundImageFix" result="effect1_dropShadow_0_1"/>
<feColorMatrix in="SourceAlpha" type="matrix" values="0 0 0 0 0 0 0 0 0 0 0 0 0 0 0 0 0 0 127 0" result="hardAlpha"/>
<feOffset dy="1"/>
<feGaussianBlur stdDeviation="1"/>
<feColorMatrix type="matrix" values="0 0 0 0 0 0 0 0 0 0 0 0 0 0 0 0 0 0 0.3 0"/>
<feBlend mode="normal" in2="effect1_dropShadow_0_1" result="effect2_dropShadow_0_1"/>
<feBlend mode="normal" in="SourceGraphic" in2="effect2_dropShadow_0_1" result="shape"/>
</filter>
</defs>
</svg>
