<!--?xml version="1.0" standalone="no"?-->
              <svg id="sw-js-blob-svg" viewBox="0 0 100 100" xmlns="http://www.w3.org/2000/svg" version="1.1">
                    <defs> 
                        <linearGradient id="sw-gradient" x1="0" x2="1" y1="1" y2="0">
                            <stop id="stop1" stop-color="rgba(248, 117, 55, 1)" offset="0%"></stop>
                            <stop id="stop2" stop-color="rgba(251, 168, 31, 1)" offset="100%"></stop>
                        </linearGradient>
                    </defs>
                <path fill="url(#sw-gradient)" d="M17.1,-26.9C23.4,-22.6,30.6,-19.9,34.1,-14.8C37.5,-9.7,37.2,-2.2,35,4.2C32.8,10.7,28.7,16,24.4,21.2C20,26.3,15.3,31.3,9.6,33.3C3.9,35.3,-2.9,34.2,-10.4,33.1C-18,32,-26.2,30.9,-29.8,26.2C-33.3,21.4,-32.3,12.9,-33.4,4.8C-34.5,-3.3,-37.7,-11,-36,-17.2C-34.3,-23.4,-27.7,-28,-20.8,-32.1C-14,-36.2,-7,-39.7,-0.8,-38.4C5.4,-37.2,10.8,-31.2,17.1,-26.9Z" width="100%" height="100%" transform="translate(50 50)" stroke-width="0" style="transition: 0.3s;"></path>
              </svg>