<!--?xml version="1.0" standalone="no"?-->
              <svg id="sw-js-blob-svg" viewBox="0 0 100 100" xmlns="http://www.w3.org/2000/svg" version="1.1">
                    <defs> 
                        <linearGradient id="sw-gradient" x1="0" x2="1" y1="1" y2="0">
                            <stop id="stop1" stop-color="rgba(255, 255, 255, 1)" offset="0%"></stop>
                            <stop id="stop2" stop-color="rgba(255, 255, 255, 1)" offset="100%"></stop>
                        </linearGradient>
                    </defs>
                <path fill="url(#sw-gradient)" d="M22.8,-34.6C28.1,-32,30.2,-23.3,32.8,-15.6C35.4,-7.8,38.6,-0.9,39.4,6.9C40.2,14.6,38.4,23.2,32.8,26.9C27.2,30.5,17.7,29.3,9.6,30.7C1.5,32.2,-5.2,36.3,-11.6,36C-17.9,35.6,-24,30.8,-28.1,25C-32.3,19.1,-34.6,12.2,-36.6,4.7C-38.6,-2.9,-40.3,-11,-37.8,-17.5C-35.2,-23.9,-28.3,-28.7,-21.3,-30.5C-14.3,-32.3,-7.2,-31.2,0.8,-32.4C8.7,-33.7,17.4,-37.1,22.8,-34.6Z" width="100%" height="100%" transform="translate(50 50)" stroke-width="0" style="transition: 0.3s;"></path>
              </svg>