<!--?xml version="1.0" standalone="no"?-->
              <svg id="sw-js-blob-svg" viewBox="0 0 100 100" xmlns="http://www.w3.org/2000/svg" version="1.1">
                    <defs> 
                        <linearGradient id="sw-gradient" x1="0" x2="1" y1="1" y2="0">
                            <stop id="stop1" stop-color="rgba(187.906, 187.906, 187.906, 1)" offset="0%"></stop>
                            <stop id="stop2" stop-color="rgba(197.013, 197.013, 197.013, 1)" offset="100%"></stop>
                        </linearGradient>
                    </defs>
                <path fill="url(#sw-gradient)" d="M22,-29.9C29.2,-29.5,36.3,-24.7,39.2,-18C42.1,-11.3,40.8,-2.8,38.6,4.9C36.5,12.6,33.6,19.6,28.8,24.8C24,29.9,17.4,33.2,10.9,33.6C4.4,33.9,-2,31.2,-8.5,29.2C-15,27.2,-21.5,25.8,-26.1,21.9C-30.7,18,-33.3,11.6,-33.9,5.1C-34.4,-1.4,-33.1,-7.9,-30.9,-14.8C-28.8,-21.7,-26,-28.9,-20.7,-30.1C-15.4,-31.4,-7.7,-26.8,-0.2,-26.5C7.4,-26.2,14.7,-30.3,22,-29.9Z" width="100%" height="100%" transform="translate(50 50)" stroke-width="0" style="transition: 0.3s;" stroke="url(#sw-gradient)"></path>
              </svg>