<!--?xml version="1.0" standalone="no"?-->
              <svg id="sw-js-blob-svg" viewBox="0 0 100 100" xmlns="http://www.w3.org/2000/svg" version="1.1">
                    <defs> 
                        <linearGradient id="sw-gradient" x1="0" x2="1" y1="1" y2="0">
                            <stop id="stop1" stop-color="rgba(224.335, 89.313, 25.41, 1)" offset="0%"></stop>
                            <stop id="stop2" stop-color="rgba(217.504, 140.108, 12.356, 1)" offset="100%"></stop>
                        </linearGradient>
                    </defs>
                <path fill="url(#sw-gradient)" d="M10.1,-15.9C12.8,-9.7,14.6,-6.3,15.2,-2.7C15.7,0.8,15,4.6,14.5,11C13.9,17.5,13.5,26.6,9.4,29.9C5.3,33.2,-2.5,30.6,-5.3,25C-8.2,19.5,-6.2,11,-6.8,5.9C-7.4,0.8,-10.6,-0.8,-13.5,-5.5C-16.4,-10.2,-18.9,-17.9,-16.6,-24.2C-14.3,-30.5,-7.2,-35.3,-1.7,-33.2C3.7,-31.1,7.3,-22.1,10.1,-15.9Z" width="100%" height="100%" transform="translate(50 50)" stroke-width="0" style="transition: 0.3s;"></path>
              </svg>