<!--?xml version="1.0" standalone="no"?-->
              <svg id="sw-js-blob-svg" viewBox="0 0 100 100" xmlns="http://www.w3.org/2000/svg" version="1.1">
                    <defs> 
                        <linearGradient id="sw-gradient" x1="0" x2="1" y1="1" y2="0">
                            <stop id="stop1" stop-color="rgba(255, 255, 255, 1)" offset="0%"></stop>
                            <stop id="stop2" stop-color="rgba(255, 255, 255, 1)" offset="100%"></stop>
                        </linearGradient>
                    </defs>
                <path fill="url(#sw-gradient)" d="M16.9,-29.2C22.4,-26.1,27.7,-22.6,29.1,-17.6C30.5,-12.7,28,-6.3,28.6,0.4C29.3,7.1,33.1,14.2,31.5,18.8C29.9,23.5,23,25.7,16.9,28.5C10.7,31.3,5.4,34.7,-1.3,36.9C-7.9,39.2,-15.8,40.1,-21.9,37.3C-27.9,34.4,-32.1,27.7,-36.2,20.8C-40.4,14,-44.4,7,-42.1,1.3C-39.9,-4.4,-31.3,-8.8,-26.6,-14.6C-21.9,-20.5,-21.1,-27.8,-17.3,-31.9C-13.5,-35.9,-6.8,-36.7,-0.5,-35.8C5.7,-34.8,11.4,-32.2,16.9,-29.2Z" width="100%" height="100%" transform="translate(50 50)" stroke-width="0" style="transition: 0.3s;" stroke="url(#sw-gradient)"></path>
              </svg>