<!--?xml version="1.0" standalone="no"?-->
              <svg id="sw-js-blob-svg" viewBox="0 0 100 100" xmlns="http://www.w3.org/2000/svg" version="1.1">
                    <defs> 
                        <linearGradient id="sw-gradient" x1="0" x2="1" y1="1" y2="0">
                            <stop id="stop1" stop-color="rgba(255, 255, 255, 1)" offset="0%"></stop>
                            <stop id="stop2" stop-color="rgba(255, 255, 255, 1)" offset="100%"></stop>
                        </linearGradient>
                    </defs>
                <path fill="url(#sw-gradient)" d="M19.2,-33.4C26.2,-29.2,34.2,-26.8,37.8,-21.5C41.5,-16.2,40.8,-8.1,40.7,-0.1C40.6,8,41,15.9,37.2,20.9C33.4,25.9,25.3,27.9,18.4,32.2C11.5,36.5,5.7,43.1,-0.2,43.4C-6.1,43.7,-12.2,37.7,-18.9,33.3C-25.6,28.9,-33,26.1,-36.2,20.8C-39.5,15.5,-38.6,7.8,-37.5,0.7C-36.3,-6.4,-34.7,-12.8,-31.5,-18.2C-28.3,-23.5,-23.5,-27.9,-18,-32.9C-12.4,-38,-6.2,-43.7,-0.1,-43.6C6.1,-43.5,12.2,-37.5,19.2,-33.4Z" width="100%" height="100%" transform="translate(50 50)" stroke-width="0" style="transition: 0.3s;" stroke="url(#sw-gradient)"></path>
              </svg>