<!--?xml version="1.0" standalone="no"?-->
              <svg id="sw-js-blob-svg" viewBox="0 0 100 100" xmlns="http://www.w3.org/2000/svg" version="1.1">
                    <defs> 
                        <linearGradient id="sw-gradient" x1="0" x2="1" y1="1" y2="0">
                            <stop id="stop1" stop-color="rgba(255, 255, 255, 1)" offset="0%"></stop>
                            <stop id="stop2" stop-color="rgba(255, 255, 255, 1)" offset="100%"></stop>
                        </linearGradient>
                    </defs>
                <path fill="url(#sw-gradient)" d="M16.3,-28.7C23.1,-24.4,31.8,-23.9,34.2,-19.7C36.6,-15.6,32.8,-7.8,33.1,0.2C33.5,8.2,38.1,16.4,35.3,19.9C32.4,23.3,22.1,21.8,15,24.9C7.9,28,3.9,35.6,-1.1,37.5C-6.1,39.4,-12.3,35.7,-18.8,32.3C-25.4,28.8,-32.3,25.7,-37.2,20.4C-42.2,15.1,-45.2,7.5,-45.7,-0.3C-46.2,-8.1,-44,-16.1,-38.5,-20.5C-32.9,-24.8,-24,-25.4,-17,-29.6C-10,-33.8,-5,-41.6,-0.1,-41.4C4.8,-41.2,9.6,-33,16.3,-28.7Z" width="100%" height="100%" transform="translate(50 50)" stroke-width="0" style="transition: 0.3s;" stroke="url(#sw-gradient)"></path>
              </svg>