<!--?xml version="1.0" standalone="no"?-->
              <svg id="sw-js-blob-svg" viewBox="0 0 100 100" xmlns="http://www.w3.org/2000/svg" version="1.1">
                    <defs> 
                        <linearGradient id="sw-gradient" x1="0" x2="1" y1="1" y2="0">
                            <stop id="stop1" stop-color="rgba(255, 255, 255, 1)" offset="0%"></stop>
                            <stop id="stop2" stop-color="rgba(255, 255, 255, 1)" offset="100%"></stop>
                        </linearGradient>
                    </defs>
                <path fill="url(#sw-gradient)" d="M18.1,-31.2C24.9,-27.5,32.7,-25.4,37.8,-20.5C42.8,-15.6,45,-7.8,43.5,-0.8C42.1,6.1,37,12.3,31.9,17.1C26.8,21.9,21.8,25.5,16.5,28.5C11.2,31.5,5.6,34,-0.2,34.3C-5.9,34.6,-11.9,32.7,-17.2,29.7C-22.5,26.7,-27.1,22.5,-32.4,17.4C-37.6,12.2,-43.5,6.1,-44.9,-0.8C-46.3,-7.7,-43.2,-15.4,-38.6,-21.7C-34,-27.9,-27.8,-32.7,-21.1,-36.5C-14.4,-40.3,-7.2,-43.1,-0.8,-41.8C5.7,-40.4,11.3,-35,18.1,-31.2Z" width="100%" height="100%" transform="translate(50 50)" stroke-width="0" style="transition: 0.3s;" stroke="url(#sw-gradient)"></path>
              </svg>