<!--?xml version="1.0" standalone="no"?-->
              <svg id="sw-js-blob-svg" viewBox="0 0 100 100" xmlns="http://www.w3.org/2000/svg" version="1.1">
                    <defs> 
                        <linearGradient id="sw-gradient" x1="0" x2="1" y1="1" y2="0">
                            <stop id="stop1" stop-color="rgba(255, 255, 255, 1)" offset="0%"></stop>
                            <stop id="stop2" stop-color="rgba(255, 255, 255, 1)" offset="100%"></stop>
                        </linearGradient>
                    </defs>
                <path fill="url(#sw-gradient)" d="M18.1,-31.5C22.4,-28.8,24.3,-21.9,27.4,-16C30.4,-10.1,34.7,-5,36.1,0.8C37.4,6.6,35.7,13.1,31.5,17C27.2,20.8,20.2,21.9,14.5,24.2C8.8,26.5,4.4,30.1,-0.8,31.4C-6,32.8,-11.9,31.9,-18.4,30C-24.8,28.1,-31.8,25.2,-35.8,20.1C-39.8,14.9,-40.9,7.4,-39.6,0.7C-38.4,-6,-34.7,-11.9,-31.1,-17.9C-27.6,-23.9,-24.2,-29.9,-19,-32.2C-13.8,-34.4,-6.9,-32.8,0,-32.8C6.9,-32.7,13.7,-34.2,18.1,-31.5Z" width="100%" height="100%" transform="translate(50 50)" stroke-width="0" style="transition: 0.3s;" stroke="url(#sw-gradient)"></path>
              </svg>